<svg xmlns="http://www.w3.org/2000/svg" viewBox="0 0 512 512" role="img" aria-label="Naturaleza Viva Invernadero">
  <defs>
    <linearGradient id="sky" x1="0" x2="1" y1="0" y2="1">
      <stop offset="0%" stop-color="#f8fafc"/>
      <stop offset="100%" stop-color="#ecfdf5"/>
    </linearGradient>
    <linearGradient id="green" x1="0" x2="1" y1="0" y2="1">
      <stop offset="0%" stop-color="#0f766e"/>
      <stop offset="100%" stop-color="#166534"/>
    </linearGradient>
    <linearGradient id="leaf" x1="0" x2="1" y1="0" y2="1">
      <stop offset="0%" stop-color="#84cc16"/>
      <stop offset="100%" stop-color="#15803d"/>
    </linearGradient>
    <filter id="shadow" x="-20%" y="-20%" width="140%" height="140%">
      <feDropShadow dx="0" dy="8" stdDeviation="10" flood-color="#0f172a" flood-opacity=".12"/>
    </filter>
  </defs>

  <rect width="512" height="512" fill="none"/>

  <g filter="url(#shadow)">
    <circle cx="256" cy="218" r="184" fill="url(#sky)" stroke="#5b8f3c" stroke-width="6"/>
    <circle cx="256" cy="218" r="171" fill="none" stroke="#8bc34a" stroke-width="4" opacity=".55"/>
  </g>

  <circle cx="167" cy="158" r="28" fill="#facc15" opacity=".95"/>
  <g stroke="#f59e0b" stroke-width="5" stroke-linecap="round" opacity=".9">
    <line x1="167" y1="113" x2="167" y2="94"/>
    <line x1="137" y1="126" x2="123" y2="112"/>
    <line x1="122" y1="157" x2="103" y2="154"/>
    <line x1="132" y1="189" x2="115" y2="198"/>
    <line x1="164" y1="203" x2="161" y2="223"/>
    <line x1="200" y1="191" x2="214" y2="204"/>
  </g>

  <g fill="none" stroke="url(#green)" stroke-width="7" stroke-linecap="round" stroke-linejoin="round">
    <path d="M342 110c40 28 72 69 89 118"/>
    <path d="M353 123c34 27 60 61 75 101"/>
    <path d="M373 136c27 21 48 50 59 81"/>
    <path d="M393 151c18 15 31 35 39 57"/>
    <path d="M413 171c10 10 17 22 22 34"/>
  </g>

  <g fill="url(#leaf)" stroke="#166534" stroke-width="4" stroke-linejoin="round">
    <path d="M342 110c10-16 25-22 42-16-7 16-19 28-38 33-7-5-9-10-4-17z"/>
    <path d="M381 140c12-14 28-19 45-13-8 16-21 27-39 31-7-4-10-8-6-18z"/>
    <path d="M410 177c12-11 27-15 42-8-7 15-19 25-36 28-7-4-10-8-6-20z"/>
    <path d="M435 220c10-8 22-10 34-4-6 12-15 20-28 22-6-2-8-7-6-18z"/>
  </g>

  <g transform="translate(122 142)">
    <path d="M34 92 134 24l100 68v129H34z" fill="#f8fafc" opacity=".94" stroke="#0f766e" stroke-width="6" stroke-linejoin="round"/>
    <path d="M24 104h220" stroke="#0f766e" stroke-width="6" stroke-linecap="round"/>
    <path d="M56 77h156" stroke="#94a3b8" stroke-width="4" opacity=".7"/>
    <path d="M56 104V66l78-52 78 52v38" fill="none" stroke="#0f766e" stroke-width="6" stroke-linejoin="round"/>
    <path d="M112 90v135" stroke="#94a3b8" stroke-width="4" opacity=".6"/>
    <path d="M184 90v135" stroke="#94a3b8" stroke-width="4" opacity=".6"/>
    <path d="M64 154h44v71H64z" fill="none" stroke="#0f766e" stroke-width="5" rx="4"/>
    <path d="M182 154h44v71h-44z" fill="none" stroke="#0f766e" stroke-width="5" rx="4"/>

    <path d="M102 154c-2 16-2 34 0 71" fill="none" stroke="#94a3b8" stroke-width="4" opacity=".6"/>
    <path d="M170 154c2 16 2 34 0 71" fill="none" stroke="#94a3b8" stroke-width="4" opacity=".6"/>

    <g transform="translate(92 214)">
      <path d="M0 0h96v20H0z" fill="#7c4a1f" opacity=".9"/>
      <rect x="14" y="-6" width="68" height="12" rx="4" fill="#a16207" opacity=".95"/>
      <path d="M48 -10c-16 0-28 12-28 28 0 22 14 34 28 44 14-10 28-22 28-44 0-16-12-28-28-28z" fill="url(#leaf)" stroke="#166534" stroke-width="4"/>
      <path d="M48 10v30" stroke="#166534" stroke-width="4" stroke-linecap="round"/>
      <path d="M48 20c-14-2-22-10-30-22 14-1 25 2 33 11" fill="none" stroke="#166534" stroke-width="4" stroke-linecap="round"/>
      <path d="M48 24c14-2 22-10 30-22-14-1-25 2-33 11" fill="none" stroke="#166534" stroke-width="4" stroke-linecap="round"/>
    </g>

    <circle cx="134" cy="106" r="16" fill="#fb923c" opacity=".95"/>
    <path d="M134 106c0 22 0 33 0 55" stroke="#0f766e" stroke-width="5" stroke-linecap="round"/>
    <path d="M134 124c-12 0-20-7-28-19 14-3 24-1 32 7" fill="none" stroke="#166534" stroke-width="4" stroke-linecap="round"/>
    <path d="M134 124c12 0 20-7 28-19-14-3-24-1-32 7" fill="none" stroke="#166534" stroke-width="4" stroke-linecap="round"/>
  </g>

  <path d="M90 402c36-12 72-18 166-18 94 0 130 6 166 18" fill="none" stroke="#0f766e" stroke-width="6" stroke-linecap="round"/>

  <g transform="translate(74 382)">
    <path d="M0 40l30-18 18 6 16-10 18 8 24-10 18 10 18-6 32 16" fill="none" stroke="#0f766e" stroke-width="5" stroke-linecap="round" stroke-linejoin="round"/>
    <path d="M0 40c18 10 28 14 40 14s22-4 40-14" fill="none" stroke="#0f766e" stroke-width="5" opacity=".75"/>
    <path d="M364 40l-30-18-18 6-16-10-18 8-24-10-18 10-18-6-32 16" fill="none" stroke="#0f766e" stroke-width="5" stroke-linecap="round" stroke-linejoin="round"/>
    <path d="M364 40c-18 10-28 14-40 14s-22-4-40-14" fill="none" stroke="#0f766e" stroke-width="5" opacity=".75"/>
  </g>

  <text x="256" y="414" text-anchor="middle" fill="#14532d" font-size="56" font-family="Georgia, 'Times New Roman', serif" font-weight="700">Naturaleza</text>
  <text x="256" y="466" text-anchor="middle" fill="#3f7f1d" font-size="64" font-family="Georgia, 'Times New Roman', serif" font-style="italic" font-weight="700">Viva</text>
  <text x="256" y="494" text-anchor="middle" fill="#3f3f46" font-size="24" letter-spacing="4" font-family="Arial, sans-serif" font-weight="700">INVERNADERO</text>
</svg>
